# xmcd CD database file
#
# Track frame offsets:
#	150
#	15649
#	30891
#	47846
#	62772
#	79517
#	93120
#	111473
#	121833
#	135738
#	149404
#	163211
#	178055
#	193128
#	207860
#	226757
#	242973
#	259287
#	272387
#	286897
#
# Disc length: 4033 seconds
#
# Revision: 0
# Processed by: cddbd v1.5.2PL0 Copyright (c) Steve Scherf et al.
# Submitted via: CDex 1.70beta2
#
DISCID=190fbf14
DTITLE=Various Artist - NU COUNTRY TRAXX 190
DYEAR=2015
DGENRE=Country
TTITLE0=Homegrown - Zac Brown Band
TTITLE1=Crushin' It - Brad Paisley 
TTITLE2=Run Away With You - Big and Rich
TTITLE3=Diamond Rings and Old Bar Stools - Tim McGraw
TTITLE4=Going Out Like That - Reba
TTITLE5=Young and Crazy - Frankie Ballard
TTITLE6=Better Than You Left Me - Mickey Guyton
TTITLE7=I'm To Blame - Kip Moore
TTITLE8=Already Callin' You Mine - Parmalee
TTITLE9=Raise 'Em Up - Keith Urban ft. Eric Church (Capitol Records Nashville)
TTITLE10=Hit The Road - Waterloo Revival
TTITLE11=When You Love A Wild Thing - Brooklyhn Woods 
TTITLE12=Drunk Americans [Lyric Substitution Edit] - Toby Keith
TTITLE13=My Baby's Got A Smile On Her Face - Craig Wayne Boyd
TTITLE14=First Kiss - Kid Rock
TTITLE15=When The Sun Says Hello To The Mountain - Jim Ed Brown
TTITLE16=Fly - Maddie and Tae
TTITLE17=Go Back - Leah Daniels 
TTITLE18=Moonlight Ride - Quentin Reddy
TTITLE19=Atmosphere - Beverley Mahood
EXTD=YEAR: 2015
EXTT0=
EXTT1=
EXTT2=
EXTT3=
EXTT4=
EXTT5=
EXTT6=
EXTT7=
EXTT8=
EXTT9=
EXTT10=
EXTT11=
EXTT12=
EXTT13=
EXTT14=
EXTT15=
EXTT16=
EXTT17=
EXTT18=
EXTT19=
PLAYORDER=
